%TF.GenerationSoftware,KiCad,Pcbnew,(5.1.6-0)*%
%TF.CreationDate,2023-05-08T15:43:43-07:00*%
%TF.ProjectId,LM1876_mute,4c4d3138-3736-45f6-9d75-74652e6b6963,rev?*%
%TF.SameCoordinates,Original*%
%TF.FileFunction,Copper,L2,Bot*%
%TF.FilePolarity,Positive*%
%FSLAX46Y46*%
G04 Gerber Fmt 4.6, Leading zero omitted, Abs format (unit mm)*
G04 Created by KiCad (PCBNEW (5.1.6-0)) date 2023-05-08 15:43:43*
%MOMM*%
%LPD*%
G01*
G04 APERTURE LIST*
%TA.AperFunction,ComponentPad*%
%ADD10C,1.600000*%
%TD*%
%TA.AperFunction,ComponentPad*%
%ADD11O,1.700000X1.700000*%
%TD*%
%TA.AperFunction,ComponentPad*%
%ADD12R,1.700000X1.700000*%
%TD*%
%TA.AperFunction,ViaPad*%
%ADD13C,0.700000*%
%TD*%
%TA.AperFunction,Conductor*%
%ADD14C,0.300000*%
%TD*%
G04 APERTURE END LIST*
D10*
%TO.P,C2,2*%
%TO.N,GND*%
X157500000Y-110250000D03*
%TO.P,C2,1*%
%TO.N,/GATE*%
X157500000Y-112750000D03*
%TD*%
D11*
%TO.P,J5,2*%
%TO.N,N/C*%
X157710000Y-105000000D03*
D12*
%TO.P,J5,1*%
X160250000Y-105000000D03*
%TD*%
D11*
%TO.P,J4,2*%
%TO.N,MUTE*%
X149960000Y-105000000D03*
D12*
%TO.P,J4,1*%
%TO.N,GND*%
X152500000Y-105000000D03*
%TD*%
D11*
%TO.P,J3,2*%
%TO.N,V+*%
X165460000Y-105000000D03*
D12*
%TO.P,J3,1*%
%TO.N,GND*%
X168000000Y-105000000D03*
%TD*%
D13*
%TO.N,GND*%
X153500000Y-111250000D03*
X163500000Y-111750000D03*
%TD*%
D14*
%TO.N,GND*%
G36*
X169525001Y-116275000D02*
G01*
X147975000Y-116275000D01*
X147975000Y-112626886D01*
X156250000Y-112626886D01*
X156250000Y-112873114D01*
X156298037Y-113114611D01*
X156392265Y-113342097D01*
X156529062Y-113546828D01*
X156703172Y-113720938D01*
X156907903Y-113857735D01*
X157135389Y-113951963D01*
X157376886Y-114000000D01*
X157623114Y-114000000D01*
X157864611Y-113951963D01*
X158092097Y-113857735D01*
X158296828Y-113720938D01*
X158470938Y-113546828D01*
X158607735Y-113342097D01*
X158701963Y-113114611D01*
X158750000Y-112873114D01*
X158750000Y-112626886D01*
X158701963Y-112385389D01*
X158607735Y-112157903D01*
X158470938Y-111953172D01*
X158296828Y-111779062D01*
X158092097Y-111642265D01*
X157864611Y-111548037D01*
X157623114Y-111500000D01*
X157586774Y-111500000D01*
X157794633Y-111471004D01*
X158027178Y-111390063D01*
X158155042Y-111321717D01*
X158234802Y-111126223D01*
X157500000Y-110391421D01*
X156765198Y-111126223D01*
X156844958Y-111321717D01*
X157066626Y-111428917D01*
X157304948Y-111490812D01*
X157463880Y-111500000D01*
X157376886Y-111500000D01*
X157135389Y-111548037D01*
X156907903Y-111642265D01*
X156703172Y-111779062D01*
X156529062Y-111953172D01*
X156392265Y-112157903D01*
X156298037Y-112385389D01*
X156250000Y-112626886D01*
X147975000Y-112626886D01*
X147975000Y-110300766D01*
X156244977Y-110300766D01*
X156278996Y-110544633D01*
X156359937Y-110777178D01*
X156428283Y-110905042D01*
X156623777Y-110984802D01*
X157358579Y-110250000D01*
X157641421Y-110250000D01*
X158376223Y-110984802D01*
X158571717Y-110905042D01*
X158678917Y-110683374D01*
X158740812Y-110445052D01*
X158755023Y-110199234D01*
X158721004Y-109955367D01*
X158640063Y-109722822D01*
X158571717Y-109594958D01*
X158376223Y-109515198D01*
X157641421Y-110250000D01*
X157358579Y-110250000D01*
X156623777Y-109515198D01*
X156428283Y-109594958D01*
X156321083Y-109816626D01*
X156259188Y-110054948D01*
X156244977Y-110300766D01*
X147975000Y-110300766D01*
X147975000Y-109373777D01*
X156765198Y-109373777D01*
X157500000Y-110108579D01*
X158234802Y-109373777D01*
X158155042Y-109178283D01*
X157933374Y-109071083D01*
X157695052Y-109009188D01*
X157449234Y-108994977D01*
X157205367Y-109028996D01*
X156972822Y-109109937D01*
X156844958Y-109178283D01*
X156765198Y-109373777D01*
X147975000Y-109373777D01*
X147975000Y-104871961D01*
X148660000Y-104871961D01*
X148660000Y-105128039D01*
X148709958Y-105379196D01*
X148807955Y-105615781D01*
X148950224Y-105828702D01*
X149131298Y-106009776D01*
X149344219Y-106152045D01*
X149580804Y-106250042D01*
X149831961Y-106300000D01*
X150088039Y-106300000D01*
X150339196Y-106250042D01*
X150575781Y-106152045D01*
X150788702Y-106009776D01*
X150969776Y-105828702D01*
X151112045Y-105615781D01*
X151199343Y-105405027D01*
X151197823Y-105850000D01*
X151206511Y-105938215D01*
X151232243Y-106023041D01*
X151274029Y-106101216D01*
X151330263Y-106169737D01*
X151398784Y-106225971D01*
X151476959Y-106267757D01*
X151561785Y-106293489D01*
X151650000Y-106302177D01*
X152287500Y-106300000D01*
X152400000Y-106187500D01*
X152400000Y-105100000D01*
X152600000Y-105100000D01*
X152600000Y-106187500D01*
X152712500Y-106300000D01*
X153350000Y-106302177D01*
X153438215Y-106293489D01*
X153523041Y-106267757D01*
X153601216Y-106225971D01*
X153669737Y-106169737D01*
X153725971Y-106101216D01*
X153767757Y-106023041D01*
X153793489Y-105938215D01*
X153802177Y-105850000D01*
X153800000Y-105212500D01*
X153687500Y-105100000D01*
X152600000Y-105100000D01*
X152400000Y-105100000D01*
X152380000Y-105100000D01*
X152380000Y-104900000D01*
X152400000Y-104900000D01*
X152400000Y-103812500D01*
X152600000Y-103812500D01*
X152600000Y-104900000D01*
X153687500Y-104900000D01*
X153715539Y-104871961D01*
X156410000Y-104871961D01*
X156410000Y-105128039D01*
X156459958Y-105379196D01*
X156557955Y-105615781D01*
X156700224Y-105828702D01*
X156881298Y-106009776D01*
X157094219Y-106152045D01*
X157330804Y-106250042D01*
X157581961Y-106300000D01*
X157838039Y-106300000D01*
X158089196Y-106250042D01*
X158325781Y-106152045D01*
X158538702Y-106009776D01*
X158719776Y-105828702D01*
X158862045Y-105615781D01*
X158947823Y-105408695D01*
X158947823Y-105850000D01*
X158956511Y-105938215D01*
X158982243Y-106023041D01*
X159024029Y-106101216D01*
X159080263Y-106169737D01*
X159148784Y-106225971D01*
X159226959Y-106267757D01*
X159311785Y-106293489D01*
X159400000Y-106302177D01*
X161100000Y-106302177D01*
X161188215Y-106293489D01*
X161273041Y-106267757D01*
X161351216Y-106225971D01*
X161419737Y-106169737D01*
X161475971Y-106101216D01*
X161517757Y-106023041D01*
X161543489Y-105938215D01*
X161552177Y-105850000D01*
X161552177Y-104871961D01*
X164160000Y-104871961D01*
X164160000Y-105128039D01*
X164209958Y-105379196D01*
X164307955Y-105615781D01*
X164450224Y-105828702D01*
X164631298Y-106009776D01*
X164844219Y-106152045D01*
X165080804Y-106250042D01*
X165331961Y-106300000D01*
X165588039Y-106300000D01*
X165839196Y-106250042D01*
X166075781Y-106152045D01*
X166288702Y-106009776D01*
X166469776Y-105828702D01*
X166612045Y-105615781D01*
X166699343Y-105405027D01*
X166697823Y-105850000D01*
X166706511Y-105938215D01*
X166732243Y-106023041D01*
X166774029Y-106101216D01*
X166830263Y-106169737D01*
X166898784Y-106225971D01*
X166976959Y-106267757D01*
X167061785Y-106293489D01*
X167150000Y-106302177D01*
X167787500Y-106300000D01*
X167900000Y-106187500D01*
X167900000Y-105100000D01*
X168100000Y-105100000D01*
X168100000Y-106187500D01*
X168212500Y-106300000D01*
X168850000Y-106302177D01*
X168938215Y-106293489D01*
X169023041Y-106267757D01*
X169101216Y-106225971D01*
X169169737Y-106169737D01*
X169225971Y-106101216D01*
X169267757Y-106023041D01*
X169293489Y-105938215D01*
X169302177Y-105850000D01*
X169300000Y-105212500D01*
X169187500Y-105100000D01*
X168100000Y-105100000D01*
X167900000Y-105100000D01*
X167880000Y-105100000D01*
X167880000Y-104900000D01*
X167900000Y-104900000D01*
X167900000Y-103812500D01*
X168100000Y-103812500D01*
X168100000Y-104900000D01*
X169187500Y-104900000D01*
X169300000Y-104787500D01*
X169302177Y-104150000D01*
X169293489Y-104061785D01*
X169267757Y-103976959D01*
X169225971Y-103898784D01*
X169169737Y-103830263D01*
X169101216Y-103774029D01*
X169023041Y-103732243D01*
X168938215Y-103706511D01*
X168850000Y-103697823D01*
X168212500Y-103700000D01*
X168100000Y-103812500D01*
X167900000Y-103812500D01*
X167787500Y-103700000D01*
X167150000Y-103697823D01*
X167061785Y-103706511D01*
X166976959Y-103732243D01*
X166898784Y-103774029D01*
X166830263Y-103830263D01*
X166774029Y-103898784D01*
X166732243Y-103976959D01*
X166706511Y-104061785D01*
X166697823Y-104150000D01*
X166699343Y-104594973D01*
X166612045Y-104384219D01*
X166469776Y-104171298D01*
X166288702Y-103990224D01*
X166075781Y-103847955D01*
X165839196Y-103749958D01*
X165588039Y-103700000D01*
X165331961Y-103700000D01*
X165080804Y-103749958D01*
X164844219Y-103847955D01*
X164631298Y-103990224D01*
X164450224Y-104171298D01*
X164307955Y-104384219D01*
X164209958Y-104620804D01*
X164160000Y-104871961D01*
X161552177Y-104871961D01*
X161552177Y-104150000D01*
X161543489Y-104061785D01*
X161517757Y-103976959D01*
X161475971Y-103898784D01*
X161419737Y-103830263D01*
X161351216Y-103774029D01*
X161273041Y-103732243D01*
X161188215Y-103706511D01*
X161100000Y-103697823D01*
X159400000Y-103697823D01*
X159311785Y-103706511D01*
X159226959Y-103732243D01*
X159148784Y-103774029D01*
X159080263Y-103830263D01*
X159024029Y-103898784D01*
X158982243Y-103976959D01*
X158956511Y-104061785D01*
X158947823Y-104150000D01*
X158947823Y-104591305D01*
X158862045Y-104384219D01*
X158719776Y-104171298D01*
X158538702Y-103990224D01*
X158325781Y-103847955D01*
X158089196Y-103749958D01*
X157838039Y-103700000D01*
X157581961Y-103700000D01*
X157330804Y-103749958D01*
X157094219Y-103847955D01*
X156881298Y-103990224D01*
X156700224Y-104171298D01*
X156557955Y-104384219D01*
X156459958Y-104620804D01*
X156410000Y-104871961D01*
X153715539Y-104871961D01*
X153800000Y-104787500D01*
X153802177Y-104150000D01*
X153793489Y-104061785D01*
X153767757Y-103976959D01*
X153725971Y-103898784D01*
X153669737Y-103830263D01*
X153601216Y-103774029D01*
X153523041Y-103732243D01*
X153438215Y-103706511D01*
X153350000Y-103697823D01*
X152712500Y-103700000D01*
X152600000Y-103812500D01*
X152400000Y-103812500D01*
X152287500Y-103700000D01*
X151650000Y-103697823D01*
X151561785Y-103706511D01*
X151476959Y-103732243D01*
X151398784Y-103774029D01*
X151330263Y-103830263D01*
X151274029Y-103898784D01*
X151232243Y-103976959D01*
X151206511Y-104061785D01*
X151197823Y-104150000D01*
X151199343Y-104594973D01*
X151112045Y-104384219D01*
X150969776Y-104171298D01*
X150788702Y-103990224D01*
X150575781Y-103847955D01*
X150339196Y-103749958D01*
X150088039Y-103700000D01*
X149831961Y-103700000D01*
X149580804Y-103749958D01*
X149344219Y-103847955D01*
X149131298Y-103990224D01*
X148950224Y-104171298D01*
X148807955Y-104384219D01*
X148709958Y-104620804D01*
X148660000Y-104871961D01*
X147975000Y-104871961D01*
X147975000Y-102975000D01*
X169525000Y-102975000D01*
X169525001Y-116275000D01*
G37*
X169525001Y-116275000D02*
X147975000Y-116275000D01*
X147975000Y-112626886D01*
X156250000Y-112626886D01*
X156250000Y-112873114D01*
X156298037Y-113114611D01*
X156392265Y-113342097D01*
X156529062Y-113546828D01*
X156703172Y-113720938D01*
X156907903Y-113857735D01*
X157135389Y-113951963D01*
X157376886Y-114000000D01*
X157623114Y-114000000D01*
X157864611Y-113951963D01*
X158092097Y-113857735D01*
X158296828Y-113720938D01*
X158470938Y-113546828D01*
X158607735Y-113342097D01*
X158701963Y-113114611D01*
X158750000Y-112873114D01*
X158750000Y-112626886D01*
X158701963Y-112385389D01*
X158607735Y-112157903D01*
X158470938Y-111953172D01*
X158296828Y-111779062D01*
X158092097Y-111642265D01*
X157864611Y-111548037D01*
X157623114Y-111500000D01*
X157586774Y-111500000D01*
X157794633Y-111471004D01*
X158027178Y-111390063D01*
X158155042Y-111321717D01*
X158234802Y-111126223D01*
X157500000Y-110391421D01*
X156765198Y-111126223D01*
X156844958Y-111321717D01*
X157066626Y-111428917D01*
X157304948Y-111490812D01*
X157463880Y-111500000D01*
X157376886Y-111500000D01*
X157135389Y-111548037D01*
X156907903Y-111642265D01*
X156703172Y-111779062D01*
X156529062Y-111953172D01*
X156392265Y-112157903D01*
X156298037Y-112385389D01*
X156250000Y-112626886D01*
X147975000Y-112626886D01*
X147975000Y-110300766D01*
X156244977Y-110300766D01*
X156278996Y-110544633D01*
X156359937Y-110777178D01*
X156428283Y-110905042D01*
X156623777Y-110984802D01*
X157358579Y-110250000D01*
X157641421Y-110250000D01*
X158376223Y-110984802D01*
X158571717Y-110905042D01*
X158678917Y-110683374D01*
X158740812Y-110445052D01*
X158755023Y-110199234D01*
X158721004Y-109955367D01*
X158640063Y-109722822D01*
X158571717Y-109594958D01*
X158376223Y-109515198D01*
X157641421Y-110250000D01*
X157358579Y-110250000D01*
X156623777Y-109515198D01*
X156428283Y-109594958D01*
X156321083Y-109816626D01*
X156259188Y-110054948D01*
X156244977Y-110300766D01*
X147975000Y-110300766D01*
X147975000Y-109373777D01*
X156765198Y-109373777D01*
X157500000Y-110108579D01*
X158234802Y-109373777D01*
X158155042Y-109178283D01*
X157933374Y-109071083D01*
X157695052Y-109009188D01*
X157449234Y-108994977D01*
X157205367Y-109028996D01*
X156972822Y-109109937D01*
X156844958Y-109178283D01*
X156765198Y-109373777D01*
X147975000Y-109373777D01*
X147975000Y-104871961D01*
X148660000Y-104871961D01*
X148660000Y-105128039D01*
X148709958Y-105379196D01*
X148807955Y-105615781D01*
X148950224Y-105828702D01*
X149131298Y-106009776D01*
X149344219Y-106152045D01*
X149580804Y-106250042D01*
X149831961Y-106300000D01*
X150088039Y-106300000D01*
X150339196Y-106250042D01*
X150575781Y-106152045D01*
X150788702Y-106009776D01*
X150969776Y-105828702D01*
X151112045Y-105615781D01*
X151199343Y-105405027D01*
X151197823Y-105850000D01*
X151206511Y-105938215D01*
X151232243Y-106023041D01*
X151274029Y-106101216D01*
X151330263Y-106169737D01*
X151398784Y-106225971D01*
X151476959Y-106267757D01*
X151561785Y-106293489D01*
X151650000Y-106302177D01*
X152287500Y-106300000D01*
X152400000Y-106187500D01*
X152400000Y-105100000D01*
X152600000Y-105100000D01*
X152600000Y-106187500D01*
X152712500Y-106300000D01*
X153350000Y-106302177D01*
X153438215Y-106293489D01*
X153523041Y-106267757D01*
X153601216Y-106225971D01*
X153669737Y-106169737D01*
X153725971Y-106101216D01*
X153767757Y-106023041D01*
X153793489Y-105938215D01*
X153802177Y-105850000D01*
X153800000Y-105212500D01*
X153687500Y-105100000D01*
X152600000Y-105100000D01*
X152400000Y-105100000D01*
X152380000Y-105100000D01*
X152380000Y-104900000D01*
X152400000Y-104900000D01*
X152400000Y-103812500D01*
X152600000Y-103812500D01*
X152600000Y-104900000D01*
X153687500Y-104900000D01*
X153715539Y-104871961D01*
X156410000Y-104871961D01*
X156410000Y-105128039D01*
X156459958Y-105379196D01*
X156557955Y-105615781D01*
X156700224Y-105828702D01*
X156881298Y-106009776D01*
X157094219Y-106152045D01*
X157330804Y-106250042D01*
X157581961Y-106300000D01*
X157838039Y-106300000D01*
X158089196Y-106250042D01*
X158325781Y-106152045D01*
X158538702Y-106009776D01*
X158719776Y-105828702D01*
X158862045Y-105615781D01*
X158947823Y-105408695D01*
X158947823Y-105850000D01*
X158956511Y-105938215D01*
X158982243Y-106023041D01*
X159024029Y-106101216D01*
X159080263Y-106169737D01*
X159148784Y-106225971D01*
X159226959Y-106267757D01*
X159311785Y-106293489D01*
X159400000Y-106302177D01*
X161100000Y-106302177D01*
X161188215Y-106293489D01*
X161273041Y-106267757D01*
X161351216Y-106225971D01*
X161419737Y-106169737D01*
X161475971Y-106101216D01*
X161517757Y-106023041D01*
X161543489Y-105938215D01*
X161552177Y-105850000D01*
X161552177Y-104871961D01*
X164160000Y-104871961D01*
X164160000Y-105128039D01*
X164209958Y-105379196D01*
X164307955Y-105615781D01*
X164450224Y-105828702D01*
X164631298Y-106009776D01*
X164844219Y-106152045D01*
X165080804Y-106250042D01*
X165331961Y-106300000D01*
X165588039Y-106300000D01*
X165839196Y-106250042D01*
X166075781Y-106152045D01*
X166288702Y-106009776D01*
X166469776Y-105828702D01*
X166612045Y-105615781D01*
X166699343Y-105405027D01*
X166697823Y-105850000D01*
X166706511Y-105938215D01*
X166732243Y-106023041D01*
X166774029Y-106101216D01*
X166830263Y-106169737D01*
X166898784Y-106225971D01*
X166976959Y-106267757D01*
X167061785Y-106293489D01*
X167150000Y-106302177D01*
X167787500Y-106300000D01*
X167900000Y-106187500D01*
X167900000Y-105100000D01*
X168100000Y-105100000D01*
X168100000Y-106187500D01*
X168212500Y-106300000D01*
X168850000Y-106302177D01*
X168938215Y-106293489D01*
X169023041Y-106267757D01*
X169101216Y-106225971D01*
X169169737Y-106169737D01*
X169225971Y-106101216D01*
X169267757Y-106023041D01*
X169293489Y-105938215D01*
X169302177Y-105850000D01*
X169300000Y-105212500D01*
X169187500Y-105100000D01*
X168100000Y-105100000D01*
X167900000Y-105100000D01*
X167880000Y-105100000D01*
X167880000Y-104900000D01*
X167900000Y-104900000D01*
X167900000Y-103812500D01*
X168100000Y-103812500D01*
X168100000Y-104900000D01*
X169187500Y-104900000D01*
X169300000Y-104787500D01*
X169302177Y-104150000D01*
X169293489Y-104061785D01*
X169267757Y-103976959D01*
X169225971Y-103898784D01*
X169169737Y-103830263D01*
X169101216Y-103774029D01*
X169023041Y-103732243D01*
X168938215Y-103706511D01*
X168850000Y-103697823D01*
X168212500Y-103700000D01*
X168100000Y-103812500D01*
X167900000Y-103812500D01*
X167787500Y-103700000D01*
X167150000Y-103697823D01*
X167061785Y-103706511D01*
X166976959Y-103732243D01*
X166898784Y-103774029D01*
X166830263Y-103830263D01*
X166774029Y-103898784D01*
X166732243Y-103976959D01*
X166706511Y-104061785D01*
X166697823Y-104150000D01*
X166699343Y-104594973D01*
X166612045Y-104384219D01*
X166469776Y-104171298D01*
X166288702Y-103990224D01*
X166075781Y-103847955D01*
X165839196Y-103749958D01*
X165588039Y-103700000D01*
X165331961Y-103700000D01*
X165080804Y-103749958D01*
X164844219Y-103847955D01*
X164631298Y-103990224D01*
X164450224Y-104171298D01*
X164307955Y-104384219D01*
X164209958Y-104620804D01*
X164160000Y-104871961D01*
X161552177Y-104871961D01*
X161552177Y-104150000D01*
X161543489Y-104061785D01*
X161517757Y-103976959D01*
X161475971Y-103898784D01*
X161419737Y-103830263D01*
X161351216Y-103774029D01*
X161273041Y-103732243D01*
X161188215Y-103706511D01*
X161100000Y-103697823D01*
X159400000Y-103697823D01*
X159311785Y-103706511D01*
X159226959Y-103732243D01*
X159148784Y-103774029D01*
X159080263Y-103830263D01*
X159024029Y-103898784D01*
X158982243Y-103976959D01*
X158956511Y-104061785D01*
X158947823Y-104150000D01*
X158947823Y-104591305D01*
X158862045Y-104384219D01*
X158719776Y-104171298D01*
X158538702Y-103990224D01*
X158325781Y-103847955D01*
X158089196Y-103749958D01*
X157838039Y-103700000D01*
X157581961Y-103700000D01*
X157330804Y-103749958D01*
X157094219Y-103847955D01*
X156881298Y-103990224D01*
X156700224Y-104171298D01*
X156557955Y-104384219D01*
X156459958Y-104620804D01*
X156410000Y-104871961D01*
X153715539Y-104871961D01*
X153800000Y-104787500D01*
X153802177Y-104150000D01*
X153793489Y-104061785D01*
X153767757Y-103976959D01*
X153725971Y-103898784D01*
X153669737Y-103830263D01*
X153601216Y-103774029D01*
X153523041Y-103732243D01*
X153438215Y-103706511D01*
X153350000Y-103697823D01*
X152712500Y-103700000D01*
X152600000Y-103812500D01*
X152400000Y-103812500D01*
X152287500Y-103700000D01*
X151650000Y-103697823D01*
X151561785Y-103706511D01*
X151476959Y-103732243D01*
X151398784Y-103774029D01*
X151330263Y-103830263D01*
X151274029Y-103898784D01*
X151232243Y-103976959D01*
X151206511Y-104061785D01*
X151197823Y-104150000D01*
X151199343Y-104594973D01*
X151112045Y-104384219D01*
X150969776Y-104171298D01*
X150788702Y-103990224D01*
X150575781Y-103847955D01*
X150339196Y-103749958D01*
X150088039Y-103700000D01*
X149831961Y-103700000D01*
X149580804Y-103749958D01*
X149344219Y-103847955D01*
X149131298Y-103990224D01*
X148950224Y-104171298D01*
X148807955Y-104384219D01*
X148709958Y-104620804D01*
X148660000Y-104871961D01*
X147975000Y-104871961D01*
X147975000Y-102975000D01*
X169525000Y-102975000D01*
X169525001Y-116275000D01*
%TD*%
M02*
