%TF.GenerationSoftware,KiCad,Pcbnew,(5.1.6-0)*%
%TF.CreationDate,2023-05-08T15:43:43-07:00*%
%TF.ProjectId,LM1876_mute,4c4d3138-3736-45f6-9d75-74652e6b6963,rev?*%
%TF.SameCoordinates,Original*%
%TF.FileFunction,Copper,L1,Top*%
%TF.FilePolarity,Positive*%
%FSLAX46Y46*%
G04 Gerber Fmt 4.6, Leading zero omitted, Abs format (unit mm)*
G04 Created by KiCad (PCBNEW (5.1.6-0)) date 2023-05-08 15:43:43*
%MOMM*%
%LPD*%
G01*
G04 APERTURE LIST*
%TA.AperFunction,ComponentPad*%
%ADD10C,1.600000*%
%TD*%
%TA.AperFunction,ComponentPad*%
%ADD11O,1.700000X1.700000*%
%TD*%
%TA.AperFunction,ComponentPad*%
%ADD12R,1.700000X1.700000*%
%TD*%
%TA.AperFunction,SMDPad,CuDef*%
%ADD13R,0.900000X0.800000*%
%TD*%
%TA.AperFunction,SMDPad,CuDef*%
%ADD14R,1.200000X0.900000*%
%TD*%
%TA.AperFunction,SMDPad,CuDef*%
%ADD15R,0.900000X1.200000*%
%TD*%
%TA.AperFunction,ViaPad*%
%ADD16C,0.700000*%
%TD*%
%TA.AperFunction,Conductor*%
%ADD17C,1.000000*%
%TD*%
%TA.AperFunction,Conductor*%
%ADD18C,0.300000*%
%TD*%
G04 APERTURE END LIST*
D10*
%TO.P,C2,2*%
%TO.N,GND*%
X157500000Y-110250000D03*
%TO.P,C2,1*%
%TO.N,/GATE*%
X157500000Y-112750000D03*
%TD*%
%TO.P,C1,2*%
%TO.N,GND*%
%TA.AperFunction,SMDPad,CuDef*%
G36*
G01*
X158050000Y-110800000D02*
X156950000Y-110800000D01*
G75*
G02*
X156700000Y-110550000I0J250000D01*
G01*
X156700000Y-108050000D01*
G75*
G02*
X156950000Y-107800000I250000J0D01*
G01*
X158050000Y-107800000D01*
G75*
G02*
X158300000Y-108050000I0J-250000D01*
G01*
X158300000Y-110550000D01*
G75*
G02*
X158050000Y-110800000I-250000J0D01*
G01*
G37*
%TD.AperFunction*%
%TO.P,C1,1*%
%TO.N,/GATE*%
%TA.AperFunction,SMDPad,CuDef*%
G36*
G01*
X158050000Y-115200000D02*
X156950000Y-115200000D01*
G75*
G02*
X156700000Y-114950000I0J250000D01*
G01*
X156700000Y-112450000D01*
G75*
G02*
X156950000Y-112200000I250000J0D01*
G01*
X158050000Y-112200000D01*
G75*
G02*
X158300000Y-112450000I0J-250000D01*
G01*
X158300000Y-114950000D01*
G75*
G02*
X158050000Y-115200000I-250000J0D01*
G01*
G37*
%TD.AperFunction*%
%TD*%
D11*
%TO.P,J5,2*%
%TO.N,N/C*%
X157710000Y-105000000D03*
D12*
%TO.P,J5,1*%
X160250000Y-105000000D03*
%TD*%
%TO.P,R3,2*%
%TO.N,V+*%
%TA.AperFunction,SMDPad,CuDef*%
G36*
G01*
X152025000Y-109375000D02*
X152025000Y-108125000D01*
G75*
G02*
X152275000Y-107875000I250000J0D01*
G01*
X153200000Y-107875000D01*
G75*
G02*
X153450000Y-108125000I0J-250000D01*
G01*
X153450000Y-109375000D01*
G75*
G02*
X153200000Y-109625000I-250000J0D01*
G01*
X152275000Y-109625000D01*
G75*
G02*
X152025000Y-109375000I0J250000D01*
G01*
G37*
%TD.AperFunction*%
%TO.P,R3,1*%
%TO.N,MUTE*%
%TA.AperFunction,SMDPad,CuDef*%
G36*
G01*
X149050000Y-109375000D02*
X149050000Y-108125000D01*
G75*
G02*
X149300000Y-107875000I250000J0D01*
G01*
X150225000Y-107875000D01*
G75*
G02*
X150475000Y-108125000I0J-250000D01*
G01*
X150475000Y-109375000D01*
G75*
G02*
X150225000Y-109625000I-250000J0D01*
G01*
X149300000Y-109625000D01*
G75*
G02*
X149050000Y-109375000I0J250000D01*
G01*
G37*
%TD.AperFunction*%
%TD*%
%TO.P,R2,2*%
%TO.N,/5V_ZENER*%
%TA.AperFunction,SMDPad,CuDef*%
G36*
G01*
X167275000Y-115375000D02*
X167275000Y-114125000D01*
G75*
G02*
X167525000Y-113875000I250000J0D01*
G01*
X168450000Y-113875000D01*
G75*
G02*
X168700000Y-114125000I0J-250000D01*
G01*
X168700000Y-115375000D01*
G75*
G02*
X168450000Y-115625000I-250000J0D01*
G01*
X167525000Y-115625000D01*
G75*
G02*
X167275000Y-115375000I0J250000D01*
G01*
G37*
%TD.AperFunction*%
%TO.P,R2,1*%
%TO.N,/GATE*%
%TA.AperFunction,SMDPad,CuDef*%
G36*
G01*
X164300000Y-115375000D02*
X164300000Y-114125000D01*
G75*
G02*
X164550000Y-113875000I250000J0D01*
G01*
X165475000Y-113875000D01*
G75*
G02*
X165725000Y-114125000I0J-250000D01*
G01*
X165725000Y-115375000D01*
G75*
G02*
X165475000Y-115625000I-250000J0D01*
G01*
X164550000Y-115625000D01*
G75*
G02*
X164300000Y-115375000I0J250000D01*
G01*
G37*
%TD.AperFunction*%
%TD*%
%TO.P,R1,2*%
%TO.N,V+*%
%TA.AperFunction,SMDPad,CuDef*%
G36*
G01*
X165725000Y-108125000D02*
X165725000Y-109375000D01*
G75*
G02*
X165475000Y-109625000I-250000J0D01*
G01*
X164550000Y-109625000D01*
G75*
G02*
X164300000Y-109375000I0J250000D01*
G01*
X164300000Y-108125000D01*
G75*
G02*
X164550000Y-107875000I250000J0D01*
G01*
X165475000Y-107875000D01*
G75*
G02*
X165725000Y-108125000I0J-250000D01*
G01*
G37*
%TD.AperFunction*%
%TO.P,R1,1*%
%TO.N,/5V_ZENER*%
%TA.AperFunction,SMDPad,CuDef*%
G36*
G01*
X168700000Y-108125000D02*
X168700000Y-109375000D01*
G75*
G02*
X168450000Y-109625000I-250000J0D01*
G01*
X167525000Y-109625000D01*
G75*
G02*
X167275000Y-109375000I0J250000D01*
G01*
X167275000Y-108125000D01*
G75*
G02*
X167525000Y-107875000I250000J0D01*
G01*
X168450000Y-107875000D01*
G75*
G02*
X168700000Y-108125000I0J-250000D01*
G01*
G37*
%TD.AperFunction*%
%TD*%
D13*
%TO.P,Q1,3*%
%TO.N,MUTE*%
X150250000Y-112250000D03*
%TO.P,Q1,2*%
%TO.N,GND*%
X152250000Y-111300000D03*
%TO.P,Q1,1*%
%TO.N,/GATE*%
X152250000Y-113200000D03*
%TD*%
D11*
%TO.P,J4,2*%
%TO.N,MUTE*%
X149960000Y-105000000D03*
D12*
%TO.P,J4,1*%
%TO.N,GND*%
X152500000Y-105000000D03*
%TD*%
D11*
%TO.P,J3,2*%
%TO.N,V+*%
X165460000Y-105000000D03*
D12*
%TO.P,J3,1*%
%TO.N,GND*%
X168000000Y-105000000D03*
%TD*%
D14*
%TO.P,D2,2*%
%TO.N,/GATE*%
X162250000Y-113400000D03*
%TO.P,D2,1*%
%TO.N,V+*%
X162250000Y-110100000D03*
%TD*%
D15*
%TO.P,D1,2*%
%TO.N,GND*%
X164850000Y-111750000D03*
%TO.P,D1,1*%
%TO.N,/5V_ZENER*%
X168150000Y-111750000D03*
%TD*%
D16*
%TO.N,GND*%
X153500000Y-111250000D03*
X163500000Y-111750000D03*
%TD*%
D17*
%TO.N,GND*%
X153450000Y-111300000D02*
X153500000Y-111250000D01*
X152250000Y-111300000D02*
X153450000Y-111300000D01*
X164850000Y-111750000D02*
X163500000Y-111750000D01*
D18*
%TO.N,/GATE*%
X157000000Y-113200000D02*
X157500000Y-113700000D01*
X152250000Y-113200000D02*
X157000000Y-113200000D01*
X159450000Y-113700000D02*
X157500000Y-113700000D01*
X159750000Y-113400000D02*
X159450000Y-113700000D01*
X162250000Y-113400000D02*
X159750000Y-113400000D01*
X163600000Y-114750000D02*
X162250000Y-113400000D01*
X165012500Y-114750000D02*
X163600000Y-114750000D01*
%TO.N,/5V_ZENER*%
X167987500Y-111587500D02*
X168150000Y-111750000D01*
X167987500Y-108750000D02*
X167987500Y-111587500D01*
X167987500Y-111912500D02*
X168150000Y-111750000D01*
X167987500Y-114750000D02*
X167987500Y-111912500D01*
%TO.N,V+*%
X152737500Y-108750000D02*
X152737500Y-107262500D01*
X152737500Y-107262500D02*
X153250000Y-106750000D01*
X165460000Y-108302500D02*
X165012500Y-108750000D01*
X165460000Y-105000000D02*
X165460000Y-108302500D01*
X162250000Y-108500000D02*
X160500000Y-106750000D01*
X153250000Y-106750000D02*
X160500000Y-106750000D01*
X162250000Y-110100000D02*
X162250000Y-108500000D01*
X165012500Y-108750000D02*
X165000000Y-108750000D01*
X165000000Y-108750000D02*
X163650000Y-110100000D01*
X163650000Y-110100000D02*
X162250000Y-110100000D01*
%TO.N,MUTE*%
X149960000Y-108552500D02*
X149762500Y-108750000D01*
X149960000Y-105000000D02*
X149960000Y-108552500D01*
X149762500Y-111762500D02*
X150250000Y-112250000D01*
X149762500Y-108750000D02*
X149762500Y-111762500D01*
%TD*%
M02*
